<svg id="Mandala" xmlns="http://www.w3.org/2000/svg" viewBox="0 0 536.51 540.35"><defs><style>.cls-1,.cls-2{fill:none;}.cls-1,.cls-2,.cls-3,.cls-4{stroke:#baabf4;stroke-miterlimit:10;}.cls-1,.cls-4{stroke-width:5px;}.cls-2,.cls-3{stroke-width:3px;}.cls-3,.cls-4{fill:#baabf4;}</style></defs><title>Mandala</title><g id="Beginning"><path class="cls-1" d="M.5,458.5c40.32,0,73,35.59,73,79.5" transform="translate(4.46 -3.36)"/></g><g id="Inner_Circle" data-name="Inner Circle"><path class="cls-1" d="M.5,456.5c0-32.06,26.84-58,60-58" transform="translate(4.46 -3.36)"/><path class="cls-1" d="M52.47,481.39c25.27-19.72,29.21-56.84,8.81-83" transform="translate(4.46 -3.36)"/><path class="cls-1" d="M50.55,437.4a5.4,5.4,0,0,0-8-2.52c-3.09,2.2-2.43,6.83-.46,9.55,4.9,6.79,13.38.63,14.3-5.91s-5.31-11.64-11.47-11.88c-7.07-.28-12.64,5.6-13.82,12.25-1.26,7.1,2.74,13.92,8.78,17.49a19.34,19.34,0,0,0,21.08-1.22C73,446.7,73.66,429.9,64.66,419c-13.68-16.61-33.07-9.09-49-1.36" transform="translate(4.46 -3.36)"/><path class="cls-1" d="M55.5,486.55c22.39-21.68,59.71-21.52,83.45.36" transform="translate(4.46 -3.36)"/><path class="cls-1" d="M75.32,537.67c31.86,3.33,60.6-19.17,64.25-50.32" transform="translate(4.46 -3.36)"/><path class="cls-1" d="M104.66,506.66c1.45-2.85-.7-6.51-4-7-3.75-.55-6.5,3-7,6.15-1.23,7.83,9.14,9.25,14.36,5.44s4.32-11.38.09-15.6c-4.87-4.85-13-4.55-18.45-.83-5.86,4-7.75,11.22-5.93,17.62,2,7.07,8.39,11.93,15.94,13.08a24.45,24.45,0,0,0,27.92-22c1.8-20.26-17.32-28-34.14-33.27" transform="translate(4.46 -3.36)"/><path class="cls-1" d="M.5,385.5a144,144,0,0,1,144,144" transform="translate(4.46 -3.36)"/></g><g id="Middle_Circle" data-name="Middle Circle"><path class="cls-2" d="M61.5,399.5l22.58-52.39.69-1.6.27-.63.38-.89.69-1.6.38-.89" transform="translate(4.46 -3.36)"/><path class="cls-2" d="M65.09,315.37c.78,1.64,1.13,2.2,1.11-.08a32.18,32.18,0,0,0,2.53,7.91c-1-2.51-.7-1.82-.34.2.14-.58.37.17.53,1a17.85,17.85,0,0,1,.62,2.35c5.25,25-5.09,72.73-6,72.73" transform="translate(4.46 -3.36)"/><path class="cls-2" d="M106.44,334.17c1.24.1,1.37.85,1.25,2.69.27-.36.3.37.28,1.11a15,15,0,0,1-.17,2.09c-3.21,21.53-47,33-44.29,59.45" transform="translate(4.46 -3.36)"/><path class="cls-3" d="M72.68,316.29c-3.18,2.35-3.35,3-.44,6.6-3.52-2.6-4-2.17-3.89.33-1.09-1.89-1.7-1.72-2.6-.22-.39-1.5-1-1.68-2.41-1.26.38-1-.06-1.46-1.08-1.88.41-.61.24-1.21-.07-2a14.54,14.54,0,0,0,.72-1.72A5.36,5.36,0,0,1,64.23,315a4.36,4.36,0,0,1,1.76-.51c.66.05,1.26.22,1.6-.27.7,1.1,1.13,1.54,2,0C69.33,316.75,69.5,317.36,72.68,316.29Z" transform="translate(4.46 -3.36)"/><path class="cls-3" d="M90.84,341a2.77,2.77,0,0,0-.34,2,1.74,1.74,0,0,0-1.25,1.62,1.59,1.59,0,0,0-2.09.87c-.8-.92-1.4-1.1-2.4-.45,0-1.26-.47-1.69-1.73-1.73.65-1,.48-1.6-.45-2.4a1.59,1.59,0,0,0,.87-2.09,1.74,1.74,0,0,0,1.62-1.25,2.77,2.77,0,0,0,2-.34,5,5,0,0,0,1.86.6,6,6,0,0,0,1.33,1.33A5,5,0,0,0,90.84,341Z" transform="translate(4.46 -3.36)"/><path class="cls-3" d="M113.62,331.32c-2.12,2.33-2.29,2.93-3.19,6.17.29-2.21-.14-1.77-.79-.18-.39-1-1-.81-1.74-.11a1.8,1.8,0,0,0-1.94-.73,2.12,2.12,0,0,0-1.41-1.45,4,4,0,0,1,0-4,2.2,2.2,0,0,0,1.43-1.43,2.41,2.41,0,0,0,2-.55,1.35,1.35,0,0,0,1.9.12c.38,1.16.82,1.59,1.82.54C111.33,331.75,111.5,332.36,113.62,331.32Z" transform="translate(4.46 -3.36)"/><path class="cls-1" d="M2.5,292.5c64.6,2.86,70.77,90.33,56.75,106" transform="translate(4.46 -3.36)"/><path class="cls-1" d="M2.35,321c44.77,6.28,64.77,68.64,58.15,77.55" transform="translate(4.46 -3.36)"/><path class="cls-4" d="M33.27,389.5C38.07,385,29,353.76,3.5,345.4l-.38,41.79Z" transform="translate(4.46 -3.36)"/><path class="cls-1" d="M178.44,370.5c-45.41-46-114.48,8-116.69,28.88" transform="translate(4.46 -3.36)"/><path class="cls-1" d="M157.5,388.5c-37.19-25.72-92.58-.15-93.74,10.88" transform="translate(4.46 -3.36)"/><path class="cls-4" d="M82.83,412.16c.07-6.59,29.17-21.09,52.61-8L105,432.77Z" transform="translate(4.46 -3.36)"/><path class="cls-1" d="M177.5,370.5c41,50-20,113-41,113" transform="translate(4.46 -3.36)"/><path class="cls-1" d="M156.14,388.19c25.72,37.19-6.6,94.15-17.64,95.31" transform="translate(4.46 -3.36)"/><path class="cls-4" d="M126.87,459.09c6.58.33,22.82-27.84,11.16-52l-30.39,28.68Z" transform="translate(4.46 -3.36)"/><path class="cls-1" d="M238.5,537.5c-1-64.65-84.75-59-100.79-45.41" transform="translate(4.46 -3.36)"/><path class="cls-1" d="M213.4,538.43c-9.08-44.29-66.43-52.1-74.9-44.93" transform="translate(4.46 -3.36)"/><path class="cls-4" d="M143.1,503.89c4.61-4.71,35.66,4.94,43.52,30.61l-41.79-.42Z" transform="translate(4.46 -3.36)"/><path class="cls-2" d="M140.64,485.27,191,458.39l1.54-.82.61-.33.85-.45,1.54-.82.86-.46" transform="translate(4.46 -3.36)"/><path class="cls-2" d="M224.17,474.66c-1.7-.64-2.28-.94,0-1.11a32.18,32.18,0,0,1-8.09-1.86c2.58.76,1.87.55-.17.36.57-.19-.2-.35-1.06-.44a17.85,17.85,0,0,0-2.39-.42c-25.33-3.15-72.05,11.15-72,12.1" transform="translate(4.46 -3.36)"/><path class="cls-2" d="M202,435c-.2-1.23-1-1.29-2.79-1,.34-.3-.39-.27-1.13-.18a15,15,0,0,0-2.06.34c-21.18,5-29,49.62-55.54,49.1" transform="translate(4.46 -3.36)"/><path class="cls-3" d="M222.62,467.18c-2.08,3.36-2.67,3.59-6.54,1,2.89,3.29,2.49,3.76,0,3.91,2,.93,1.86,1.55.43,2.57,1.53.26,1.75.85,1.46,2.29,1-.46,1.46-.07,2,.92.57-.46,1.19-.34,2-.1a14.54,14.54,0,0,1,1.65-.86,5.36,5.36,0,0,0,1.09-1.41,4.36,4.36,0,0,0,.37-1.79c-.11-.65-.33-1.24.14-1.62-1.16-.6-1.63-1-.2-1.94C222.44,470.56,221.83,470.44,222.62,467.18Z" transform="translate(4.46 -3.36)"/><path class="cls-3" d="M196.53,451.15a2.77,2.77,0,0,1-1.94.5,1.74,1.74,0,0,1-1.51,1.38,1.59,1.59,0,0,1-.69,2.16c1,.72,1.21,1.31.64,2.35,1.26-.07,1.72.33,1.87,1.58.94-.73,1.56-.61,2.43.24a1.59,1.59,0,0,1,2-1,1.74,1.74,0,0,1,1.11-1.72,2.77,2.77,0,0,1,.17-2,5,5,0,0,1-.75-1.81,6,6,0,0,1-1.44-1.22A5,5,0,0,1,196.53,451.15Z" transform="translate(4.46 -3.36)"/><path class="cls-3" d="M204.23,427.64c-2.14,2.3-2.73,2.53-5.89,3.7,2.18-.48,1.78,0,.25.77,1,.31.89.93.25,1.73a1.8,1.8,0,0,1,.89,1.87A2.12,2.12,0,0,1,201.3,437a2.41,2.41,0,0,1,2.06.38,2.41,2.41,0,0,1,2-.71,2.2,2.2,0,0,1,1.31-1.55A2.41,2.41,0,0,1,207,433c-.55-.6-.77-1.19-.28-1.89-1.18-.28-1.65-.68-.69-1.77C204,430,203.37,429.84,204.23,427.64Z" transform="translate(4.46 -3.36)"/><path class="cls-1" d="M-4,291.5c132.27,0,239.5,107.23,239.5,239.5" transform="translate(4.46 -3.36)"/><path class="cls-1" d="M-243.5,531" transform="translate(4.46 -3.36)"/></g><g id="Swirls"><path class="cls-1" d="M39.27,292.88A26.4,26.4,0,0,0,28.79,257,21.12,21.12,0,0,0,.12,265.43a16.9,16.9,0,0,0,6.71,22.93A13.52,13.52,0,0,0,25.18,283a10.81,10.81,0,0,0-4.29-14.68,8.65,8.65,0,0,0-11.74,3.44,6.92,6.92,0,0,0,2.75,9.39,5.54,5.54,0,0,0,7.51-2.2,4.43,4.43,0,0,0-1.76-6,3.54,3.54,0,0,0-4.81,1.41" transform="translate(4.46 -3.36)"/><path class="cls-1" d="M85.43,308.59a26.4,26.4,0,0,0,.79-37.33,21.12,21.12,0,0,0-29.86-.63,16.9,16.9,0,0,0-.51,23.89,13.52,13.52,0,0,0,19.11.4,10.81,10.81,0,0,0,.32-15.29,8.65,8.65,0,0,0-12.23-.26,6.92,6.92,0,0,0-.21,9.79,5.54,5.54,0,0,0,7.83.17,4.43,4.43,0,0,0,.13-6.26,3.54,3.54,0,0,0-5-.11" transform="translate(4.46 -3.36)"/><path class="cls-1" d="M129.92,331.78A26.4,26.4,0,0,0,140,295.83a21.12,21.12,0,0,0-28.76-8.08,16.9,16.9,0,0,0-6.46,23,13.52,13.52,0,0,0,18.4,5.17,10.81,10.81,0,0,0,4.14-14.72,8.65,8.65,0,0,0-11.78-3.31,6.92,6.92,0,0,0-2.65,9.42,5.54,5.54,0,0,0,7.54,2.12,4.43,4.43,0,0,0,1.69-6,3.54,3.54,0,0,0-4.82-1.36" transform="translate(4.46 -3.36)"/><path class="cls-1" d="M169,363.09a26.4,26.4,0,0,0,12.62-35.14,21.12,21.12,0,0,0-28.11-10.1,16.9,16.9,0,0,0-8.08,22.49,13.52,13.52,0,0,0,18,6.46,10.81,10.81,0,0,0,5.17-14.39,8.65,8.65,0,0,0-11.51-4.14,6.92,6.92,0,0,0-3.31,9.21,5.54,5.54,0,0,0,7.37,2.65,4.43,4.43,0,0,0,2.12-5.9,3.54,3.54,0,0,0-4.72-1.69" transform="translate(4.46 -3.36)"/><path class="cls-1" d="M233.9,521.92a26.4,26.4,0,0,0,35.74-10.81A21.12,21.12,0,0,0,261,482.52a16.9,16.9,0,0,0-22.87,6.92,13.52,13.52,0,0,0,5.53,18.3,10.81,10.81,0,0,0,14.64-4.43,8.65,8.65,0,0,0-3.54-11.71,6.92,6.92,0,0,0-9.37,2.83,5.54,5.54,0,0,0,2.27,7.49,4.43,4.43,0,0,0,6-1.81,3.54,3.54,0,0,0-1.45-4.8" transform="translate(4.46 -3.36)"/><path class="cls-1" d="M227.78,478.12a26.4,26.4,0,0,0,30.57-21.44,21.12,21.12,0,0,0-17.15-24.46A16.9,16.9,0,0,0,221.64,446a13.52,13.52,0,0,0,11,15.65,10.81,10.81,0,0,0,12.52-8.78,8.65,8.65,0,0,0-7-10,6.92,6.92,0,0,0-8,5.62,5.54,5.54,0,0,0,4.5,6.41,4.43,4.43,0,0,0,5.13-3.6,3.54,3.54,0,0,0-2.88-4.1" transform="translate(4.46 -3.36)"/><path class="cls-1" d="M218.12,434.76a26.4,26.4,0,0,0,23.25-29.21A21.12,21.12,0,0,0,218,386.94a16.9,16.9,0,0,0-14.88,18.69,13.52,13.52,0,0,0,15,11.91,10.81,10.81,0,0,0,9.52-12A8.65,8.65,0,0,0,218,398a6.92,6.92,0,0,0-6.1,7.66,5.54,5.54,0,0,0,6.13,4.88,4.43,4.43,0,0,0,3.9-4.9,3.54,3.54,0,0,0-3.92-3.12" transform="translate(4.46 -3.36)"/><path class="cls-1" d="M196.62,396.24a26.4,26.4,0,0,0,19.28-32,21.12,21.12,0,0,0-25.58-15.43A16.9,16.9,0,0,0,178,369.3a13.52,13.52,0,0,0,16.37,9.87,10.81,10.81,0,0,0,7.9-13.1,8.65,8.65,0,0,0-10.48-6.32,6.92,6.92,0,0,0-5.06,8.38,5.54,5.54,0,0,0,6.7,4,4.43,4.43,0,0,0,3.24-5.36,3.54,3.54,0,0,0-4.29-2.59" transform="translate(4.46 -3.36)"/><path class="cls-1" d="M-279.5,531" transform="translate(4.46 -3.36)"/><path class="cls-1" d="M275.38,539h0c.08-2.66.12-5.32.12-8C275.5,378.41,152.34,254.6,0,253.53v0l-2,0" transform="translate(4.46 -3.36)"/></g><g id="Outer_Circle" data-name="Outer Circle"><circle class="cls-4" cx="273.46" cy="258.64" r="6.5"/><path class="cls-1" d="M315.5,195.5" transform="translate(4.46 -3.36)"/><line class="cls-1" x1="371.96" y1="185.14" x2="252.96" y2="243.14"/><line class="cls-1" x1="264.96" y1="205.14" x2="371.96" y2="185.14"/><line class="cls-1" x1="202.96" y1="234.14" x2="371.96" y2="185.14"/><line class="cls-1" x1="270.96" y1="260.14" x2="371.96" y2="185.14"/><line class="cls-4" x1="227.96" y1="192.14" x2="371.96" y2="185.14"/><circle class="cls-4" cx="228.96" cy="192.14" r="9"/><circle class="cls-4" cx="266.46" cy="204.64" r="6.5"/><circle class="cls-4" cx="204.46" cy="233.64" r="7.5"/><circle class="cls-4" cx="252.46" cy="243.64" r="8.5"/><path class="cls-1" d="M255.61,294.9l90.39-83,25.5-23.41C345.06,185.44,318.57,183,292,181c-22.26-1.69-44.83-4.15-67.18-3.3a82.43,82.43,0,0,0-29,6.23c-13.15,5.49-24.91,14-35.15,23.82-17.27,16.6-30.5,37.1-41.2,58.4q-2.57,5.13-5,10.34" transform="translate(4.46 -3.36)"/><path class="cls-1" d="M200.5,345.5l3.61-3.31" transform="translate(4.46 -3.36)"/><path class="cls-1" d="M254.23,294.12,353.53,203l27.78-25.51c-28.35-3.28-56.76-5.87-85.21-8C269,167,243,164,216,167a82.31,82.31,0,0,0-42,15c-2,2-4,3-7,5-29,23-47,53-61.74,85" transform="translate(4.46 -3.36)"/><path class="cls-1" d="M197.64,346.08l5.14-4.72" transform="translate(4.46 -3.36)"/><path class="cls-1" d="M360.65,239.9" transform="translate(4.46 -3.36)"/><line class="cls-1" x1="376.31" y1="185.28" x2="308.83" y2="299.17"/><line class="cls-1" x1="347.68" y1="290.3" x2="376.31" y2="185.28"/><line class="cls-1" x1="313.74" y1="349.74" x2="376.31" y2="185.28"/><line class="cls-1" x1="293.35" y1="279.85" x2="376.31" y2="185.28"/><line class="cls-4" x1="357.63" y1="328.24" x2="376.31" y2="185.28"/><circle class="cls-4" cx="353.25" cy="330.6" r="9" transform="translate(-0.5 652.47) rotate(-85.34)"/><circle class="cls-4" cx="343.84" cy="292.21" r="6.5" transform="translate(29.12 607.81) rotate(-85.34)"/><circle class="cls-4" cx="309.9" cy="351.65" r="7.5" transform="translate(-61.31 628.59) rotate(-85.34)"/><circle class="cls-4" cx="303.83" cy="302.99" r="8.5" transform="matrix(0.08, -1, 1, 0.08, -18.39, 577.85)"/><path class="cls-1" d="M254.14,293.89l91.86-85,26.17-24.22c.91,26.92,1.16,53.84,1,80.78C373,304,379,349,348,380c-4,4-8,7-11,10-22,21-49,35-76.5,43.5" transform="translate(4.46 -3.36)"/><path class="cls-1" d="M255.32,294.85l100.47-93L384,175.77c1,29.17,1.24,58.35,1.08,87.53-.13,23.64.53,47.73-2.42,71.24a77.65,77.65,0,0,1-10,30.33c-8,13.69-19.1,25.48-31.25,35.58-20,16.63-43.37,29-67.44,38.67q-5.68,2.28-11.43,4.37" transform="translate(4.46 -3.36)"/><path class="cls-1" d="M201,345.14l3.08-2.85" transform="translate(4.46 -3.36)"/><circle class="cls-4" cx="259.46" cy="293.64" r="9.5"/><circle class="cls-4" cx="295.46" cy="279.64" r="7.5"/><path class="cls-1" d="M465.71,505.08" transform="translate(4.46 -3.36)"/><line class="cls-1" x1="513.35" y1="531.52" x2="386.29" y2="494.38"/><line class="cls-1" x1="420.73" y1="474.34" x2="513.35" y2="531.52"/><line class="cls-1" x1="355.34" y1="454.09" x2="513.35" y2="531.52"/><line class="cls-1" x1="388.17" y1="519.07" x2="513.35" y2="531.52"/><line class="cls-4" x1="402.1" y1="439.83" x2="513.35" y2="531.52"/><circle class="cls-4" cx="398.38" cy="443.86" r="9" transform="translate(-193.58 436.69) rotate(-47.73)"/><circle class="cls-4" cx="417.72" cy="478.34" r="6.5" transform="translate(-212.76 462.29) rotate(-47.73)"/><circle class="cls-4" cx="352.33" cy="458.09" r="7.5" transform="translate(-219.17 407.28) rotate(-47.73)"/><circle class="cls-4" cx="381.12" cy="497.78" r="8.5" transform="translate(-239.12 441.57) rotate(-47.73)"/><path class="cls-1" d="M336.34,538.4c58.07-1.1,117.08,1.8,175.51-.83-.71-.81-12.8.35,0,0-.71-.81-11.14-12.14-11.32-7.33-.17,4.54,8,7.35,11.32,7.33-26.81-30.7-54.32-61.21-83.23-90-13.07-13-26.71-26-44.7-31.58-19-5.91-39.52-5.85-59.05-3-22.27,3.19-43.88,10.23-64.52,19" transform="translate(4.46 -3.36)"/><path class="cls-1" d="M336.52,536.87c62.9-.58,126.9-.68,190-.88-.69-.79-13.94.26,0,0-.69-.79-12.1-13.13-12.25-7.91C514.16,533,523,536,526.55,536c-28.8-32.72-57.93-65.19-88.9-95.89-13.42-14.85-28.44-27.83-47.45-33.79-45-13.92-93-1.84-135.21,17" transform="translate(4.46 -3.36)"/><path class="cls-1" d="M277.21,537.21l5.59,0" transform="translate(4.46 -3.36)"/><path class="cls-4" d="M361.92,537.85a11.89,11.89,0,0,1-.26,2.49c-4.41,0-8.83,0-13.22.33a72.16,72.16,0,0,0-10.09.31,12,12,0,1,1,23.58-3.13Z" transform="translate(4.46 -3.36)"/><ellipse class="cls-4" cx="466.33" cy="486.18" rx="8.5" ry="9.5" transform="translate(3.64 -2.58) rotate(-0.1)"/><ellipse class="cls-4" cx="384.96" cy="517.64" rx="14" ry="13.5"/><path class="cls-1" d="M38.1,69.65" transform="translate(4.46 -3.36)"/><line class="cls-1" x1="12.69" y1="23.15" x2="50.03" y2="150.16"/><line class="cls-1" x1="70.02" y1="115.68" x2="12.69" y2="23.15"/><line class="cls-1" x1="90.38" y1="181.03" x2="12.69" y2="23.15"/><line class="cls-1" x1="25.34" y1="148.32" x2="12.69" y2="23.15"/><line class="cls-4" x1="104.56" y1="134.26" x2="12.69" y2="23.15"/><circle class="cls-4" cx="99.43" cy="136.88" r="9" transform="translate(-61.82 99.4) rotate(-42.37)"/><circle class="cls-4" cx="64.92" cy="117.6" r="6.5" transform="translate(-57.84 71.11) rotate(-42.37)"/><circle class="cls-4" cx="85.28" cy="182.95" r="7.5" transform="translate(-96.56 101.9) rotate(-42.37)"/><circle class="cls-4" cx="45.54" cy="154.23" r="8.5" transform="translate(-87.59 67.62) rotate(-42.37)"/><path class="cls-1" d="M5,199.08C6,141,3,82,5.53,23.56c.81.71-.33,12.8,0,0,.81.71,12.16,11.12,7.35,11.31-4.54.18-7.37-8-7.35-11.31,30.74,26.76,61.3,54.22,90.09,83.08,13,13.05,26,26.67,31.66,44.65,5.94,19,5.91,39.51,3.14,59-3.16,22.27-10.16,43.9-18.93,64.55" transform="translate(4.46 -3.36)"/><path class="cls-1" d="M6.53,198.9C7,136,7,72,7.09,8.86c.79.69-.24,13.94,0,0C7.88,9.55,20.24,20.94,15,21.1c-4.94.15-7.94-8.65-7.93-12.24,32.77,28.75,65.29,57.82,96,88.74C118,111,131,126,137,145c14,45,2,93-16.82,135.24" transform="translate(4.46 -3.36)"/><path class="cls-1" d="M6.28,258.21l0-5.59" transform="translate(4.46 -3.36)"/><path class="cls-4" d="M5.5,173.5a11.89,11.89,0,0,0-2.48.27c0,4.41,0,8.83-.31,13.23a72.16,72.16,0,0,1-.3,10.09A12,12,0,1,0,5.5,173.5Z" transform="translate(4.46 -3.36)"/><ellipse class="cls-4" cx="61.46" cy="65.64" rx="9.5" ry="8.5"/><ellipse class="cls-4" cx="23.96" cy="154.64" rx="14" ry="13.5"/></g></svg>